

<svg width="129" height="115" viewBox="0 0 129 115" fill="none" xmlns="http://www.w3.org/2000/svg">
<path d="M117.741 112.34H11.2593C6.16667 112.34 2 108.173 2 103.08V11.2593C2 6.16667 6.16667 2 11.2593 2H117.741C122.833 2 127 6.16667 127 11.2593V103.08C127 108.173 122.833 112.34 117.741 112.34Z" fill="#292929" stroke="url(#paint0_linear_1_80)" stroke-width="4" stroke-miterlimit="10"/>
<path d="M91.4475 71.9228C94.2253 72.3858 97.6975 73.2346 98.0062 76.3981C98.0062 75.3951 98.0062 74.4691 98.0062 73.4661C98.0062 75.7809 97.466 78.7901 98.3148 81.0278C99.0864 82.8796 101.17 84.5 103.33 83.9599C105.877 83.2654 106.571 80.3333 106.957 78.0957C107.188 76.8611 106.725 75.4722 106.957 74.2377C106.494 76.6296 105.722 79.716 102.944 80.179C100.089 80.642 98.2377 77.8642 98.0062 75.3951C98.0062 76.2438 98.0062 77.0154 98.0062 77.8642C98.0062 75.9352 98.6235 72.9259 97.7747 71.1512C96.7716 69.0679 93.4537 68.3735 91.4475 68.0648C91.6018 68.142 91.216 71.9228 91.4475 71.9228Z" fill="url(#paint1_linear_1_80)"/>
<path d="M55.5679 46.46V58.9599C56.0308 54.7933 57.5741 48.9291 59.4259 45.7655C60.9691 43.1421 62.8981 41.9075 65.1358 41.9075C70.9228 41.9075 73.4691 47.3859 73.7006 54.8704C73.7778 56.8766 73.7778 58.7285 73.7778 58.7285C74.4722 51.784 77.4043 41.8303 83.3457 41.8303C90.5988 41.8303 91.9876 50.0093 91.9876 58.6513V71.8457L87.9753 72.2316V51.3211C87.9753 44.9167 85.892 42.7562 83.4228 42.7562C74.7037 42.8334 73.3148 63.3581 73.3148 71.9229L69.6883 72.3087V51.3982C69.6883 44.9939 67.6821 42.8334 65.1358 42.8334C56.6481 42.8334 55.5679 63.3581 55.5679 71.9229L51.5555 72.3087V42.7562L55.5679 46.46Z" fill="url(#paint2_linear_1_80)"/>
<path d="M38.2839 23.3118C47.3889 23.3118 55.5679 31.105 55.5679 48.2346C55.5679 65.75 47.3117 73.1575 38.2839 73.1575C29.2562 73.0803 21 65.6729 21 48.2346C21 31.1821 29.2562 23.3118 38.2839 23.3118ZM25.3981 48.3118C25.3981 66.213 31.7253 72.2315 38.2839 72.2315C44.8426 72.2315 51.2469 66.213 51.2469 48.3118C51.2469 30.4877 44.9198 24.4692 38.2839 24.4692C31.7253 24.392 25.3981 30.4877 25.3981 48.3118Z" fill="url(#paint3_linear_1_80)"/>
<path d="M98.3919 42.9877C95.074 41.0587 90.8302 38.2037 86.4321 34.1142C83.1142 31.1049 80.5679 28.0957 78.6389 25.6266C79.4105 24.392 80.1049 23.2346 80.8765 22C81.9568 24.3148 84.3487 28.7901 89.0555 33.1111C92.4506 36.1975 95.7685 38.0494 97.929 39.0525C98.0833 40.3642 98.2376 41.6759 98.3919 42.9877Z" fill="url(#paint4_linear_1_80)"/>
<path d="M94.6882 31.7994C93.8395 31.105 92.8364 30.179 91.8333 28.9445C90.6759 27.4784 89.9815 26.0124 89.5185 24.9321C90.2129 24.855 92.2191 24.7778 94.1481 26.0895C94.9969 26.6297 95.537 27.3241 95.8457 27.787C95.9228 28.1729 96 28.7901 95.8457 29.4846C95.6142 30.7192 94.9969 31.4908 94.6882 31.7994Z" fill="url(#paint5_linear_1_80)"/>
<path d="M32.18 99V93.22L29.61 97.71H29.17L26.59 93.22V99H25.89V91.9H26.61L29.38 96.76L32.17 91.9H32.88V99H32.18ZM37.5495 99.05C36.9895 99.05 36.5162 98.95 36.1295 98.75C35.7429 98.55 35.4362 98.2833 35.2095 97.95C34.9829 97.61 34.8162 97.2267 34.7095 96.8C34.6095 96.3733 34.5595 95.9333 34.5595 95.48V91.9H35.2495V95.48C35.2495 95.8467 35.2862 96.2067 35.3595 96.56C35.4395 96.9133 35.5662 97.23 35.7395 97.51C35.9129 97.79 36.1462 98.0133 36.4395 98.18C36.7329 98.34 37.0995 98.42 37.5395 98.42C37.9929 98.42 38.3662 98.3367 38.6595 98.17C38.9595 97.9967 39.1929 97.77 39.3595 97.49C39.5329 97.21 39.6562 96.8967 39.7295 96.55C39.8029 96.1967 39.8395 95.84 39.8395 95.48V91.9H40.5395V95.48C40.5395 95.9533 40.4862 96.4067 40.3795 96.84C40.2729 97.2733 40.0995 97.6533 39.8595 97.98C39.6262 98.3067 39.3195 98.5667 38.9395 98.76C38.5595 98.9533 38.0962 99.05 37.5495 99.05ZM46.3584 93.23C46.2584 93.1167 46.1417 93.0167 46.0084 92.93C45.875 92.8367 45.725 92.7567 45.5584 92.69C45.3917 92.6233 45.2117 92.57 45.0184 92.53C44.8317 92.49 44.6317 92.47 44.4184 92.47C43.7984 92.47 43.3417 92.59 43.0484 92.83C42.7617 93.0633 42.6184 93.3833 42.6184 93.79C42.6184 94.07 42.685 94.29 42.8184 94.45C42.9584 94.61 43.175 94.74 43.4684 94.84C43.7617 94.94 44.135 95.0433 44.5884 95.15C45.095 95.2567 45.5317 95.3833 45.8984 95.53C46.265 95.6767 46.5484 95.8767 46.7484 96.13C46.9484 96.3767 47.0484 96.7133 47.0484 97.14C47.0484 97.4667 46.985 97.75 46.8584 97.99C46.7317 98.23 46.555 98.43 46.3284 98.59C46.1017 98.75 45.8317 98.87 45.5184 98.95C45.205 99.0233 44.8617 99.06 44.4884 99.06C44.1217 99.06 43.7684 99.0233 43.4284 98.95C43.095 98.87 42.7784 98.7567 42.4784 98.61C42.1784 98.4567 41.8984 98.2633 41.6384 98.03L41.9884 97.46C42.115 97.5933 42.265 97.72 42.4384 97.84C42.6184 97.9533 42.815 98.0567 43.0284 98.15C43.2484 98.2433 43.4817 98.3167 43.7284 98.37C43.9817 98.4167 44.2417 98.44 44.5084 98.44C45.075 98.44 45.515 98.3367 45.8284 98.13C46.1484 97.9233 46.3084 97.6167 46.3084 97.21C46.3084 96.9167 46.2284 96.6833 46.0684 96.51C45.9084 96.33 45.6684 96.1833 45.3484 96.07C45.0284 95.9567 44.635 95.8467 44.1684 95.74C43.675 95.6267 43.2584 95.5 42.9184 95.36C42.5784 95.22 42.3217 95.0367 42.1484 94.81C41.9817 94.5767 41.8984 94.27 41.8984 93.89C41.8984 93.45 42.005 93.08 42.2184 92.78C42.4384 92.4733 42.7384 92.2433 43.1184 92.09C43.4984 91.93 43.935 91.85 44.4284 91.85C44.7417 91.85 45.0317 91.8833 45.2984 91.95C45.5717 92.01 45.8217 92.1 46.0484 92.22C46.2817 92.34 46.4984 92.49 46.6984 92.67L46.3584 93.23ZM48.2826 99V91.9H48.9826V99H48.2826ZM50.293 95.4C50.293 94.9667 50.3664 94.5433 50.513 94.13C50.6664 93.71 50.8864 93.33 51.173 92.99C51.4597 92.6433 51.813 92.37 52.233 92.17C52.653 91.9633 53.1297 91.86 53.663 91.86C54.2964 91.86 54.8364 92.0067 55.283 92.3C55.7364 92.5867 56.0697 92.9567 56.283 93.41L55.733 93.75C55.5797 93.4367 55.3864 93.19 55.153 93.01C54.9197 92.8233 54.6697 92.69 54.403 92.61C54.143 92.53 53.883 92.49 53.623 92.49C53.1964 92.49 52.8197 92.5767 52.493 92.75C52.1664 92.9167 51.8897 93.1433 51.663 93.43C51.443 93.71 51.2764 94.0267 51.163 94.38C51.0497 94.7267 50.993 95.08 50.993 95.44C50.993 95.8333 51.0597 96.21 51.193 96.57C51.3264 96.93 51.513 97.25 51.753 97.53C51.993 97.8033 52.273 98.0233 52.593 98.19C52.9197 98.35 53.273 98.43 53.653 98.43C53.9197 98.43 54.193 98.3833 54.473 98.29C54.753 98.1967 55.013 98.0533 55.253 97.86C55.4997 97.6667 55.6964 97.4167 55.843 97.11L56.423 97.41C56.2764 97.7633 56.0497 98.0633 55.743 98.31C55.4364 98.5567 55.093 98.7433 54.713 98.87C54.3397 98.9967 53.973 99.06 53.613 99.06C53.1264 99.06 52.6797 98.9567 52.273 98.75C51.8664 98.5367 51.513 98.2567 51.213 97.91C50.9197 97.5567 50.693 97.1633 50.533 96.73C50.373 96.29 50.293 95.8467 50.293 95.4ZM60.1673 99V91.9H63.1073C63.414 91.9 63.694 91.9633 63.9473 92.09C64.2073 92.2167 64.4307 92.39 64.6173 92.61C64.804 92.8233 64.9507 93.0633 65.0573 93.33C65.164 93.59 65.2173 93.8567 65.2173 94.13C65.2173 94.5167 65.1307 94.8833 64.9573 95.23C64.7907 95.57 64.554 95.8467 64.2473 96.06C63.9407 96.2733 63.5807 96.38 63.1673 96.38H60.8673V99H60.1673ZM60.8673 95.76H63.1373C63.4173 95.76 63.6607 95.6833 63.8673 95.53C64.074 95.3767 64.234 95.1767 64.3473 94.93C64.4607 94.6833 64.5173 94.4167 64.5173 94.13C64.5173 93.8367 64.4507 93.5667 64.3173 93.32C64.184 93.0733 64.0073 92.88 63.7873 92.74C63.574 92.5933 63.3373 92.52 63.0773 92.52H60.8673V95.76ZM66.388 99V91.9H69.388C69.6947 91.9 69.9747 91.9633 70.228 92.09C70.4814 92.2167 70.7014 92.39 70.888 92.61C71.0814 92.8233 71.228 93.0633 71.328 93.33C71.4347 93.59 71.488 93.8567 71.488 94.13C71.488 94.47 71.4214 94.79 71.288 95.09C71.1614 95.39 70.978 95.6433 70.738 95.85C70.5047 96.0567 70.228 96.1933 69.908 96.26L71.648 99H70.858L69.188 96.38H67.088V99H66.388ZM67.088 95.76H69.408C69.688 95.76 69.9314 95.6833 70.138 95.53C70.3447 95.3767 70.5047 95.1767 70.618 94.93C70.7314 94.6767 70.788 94.41 70.788 94.13C70.788 93.8433 70.7214 93.58 70.588 93.34C70.4614 93.0933 70.288 92.8967 70.068 92.75C69.8547 92.5967 69.6147 92.52 69.348 92.52H67.088V95.76ZM75.7813 99.05C75.2813 99.05 74.8279 98.95 74.4213 98.75C74.0146 98.55 73.6646 98.28 73.3713 97.94C73.0779 97.5933 72.8513 97.2067 72.6912 96.78C72.5313 96.3467 72.4513 95.9033 72.4513 95.45C72.4513 94.9767 72.5346 94.5267 72.7013 94.1C72.8679 93.6667 73.1013 93.2833 73.4013 92.95C73.7079 92.61 74.0646 92.3433 74.4713 92.15C74.8779 91.95 75.3179 91.85 75.7913 91.85C76.2913 91.85 76.7446 91.9533 77.1513 92.16C77.5579 92.3667 77.9046 92.6433 78.1913 92.99C78.4846 93.3367 78.7113 93.7233 78.8713 94.15C79.0313 94.5767 79.1113 95.0133 79.1113 95.46C79.1113 95.9333 79.0279 96.3867 78.8613 96.82C78.6946 97.2467 78.4613 97.63 78.1613 97.97C77.8613 98.3033 77.5079 98.5667 77.1013 98.76C76.6946 98.9533 76.2546 99.05 75.7813 99.05ZM73.1513 95.45C73.1513 95.8367 73.2146 96.21 73.3413 96.57C73.4679 96.9233 73.6479 97.24 73.8813 97.52C74.1146 97.7933 74.3913 98.0133 74.7113 98.18C75.0379 98.34 75.3946 98.42 75.7813 98.42C76.1879 98.42 76.5513 98.3367 76.8713 98.17C77.1979 97.9967 77.4746 97.77 77.7013 97.49C77.9346 97.2033 78.1113 96.8833 78.2313 96.53C78.3513 96.1767 78.4113 95.8167 78.4113 95.45C78.4113 95.0633 78.3479 94.6933 78.2213 94.34C78.0946 93.9867 77.9113 93.67 77.6713 93.39C77.4379 93.11 77.1613 92.89 76.8413 92.73C76.5213 92.57 76.1679 92.49 75.7813 92.49C75.3813 92.49 75.0179 92.5733 74.6913 92.74C74.3713 92.9067 74.0946 93.1333 73.8613 93.42C73.6346 93.7 73.4579 94.0167 73.3313 94.37C73.2113 94.7233 73.1513 95.0833 73.1513 95.45ZM79.6173 98.11C79.7573 98.21 79.9407 98.2967 80.1673 98.37C80.4007 98.4433 80.6673 98.48 80.9673 98.48C81.314 98.48 81.594 98.4233 81.8073 98.31C82.0207 98.19 82.184 98.0133 82.2973 97.78C82.4107 97.54 82.4873 97.2433 82.5273 96.89C82.5673 96.5367 82.5873 96.1233 82.5873 95.65V91.9H83.2873V95.51C83.2873 96.0433 83.2607 96.53 83.2073 96.97C83.154 97.41 83.0507 97.79 82.8973 98.11C82.744 98.43 82.514 98.6767 82.2073 98.85C81.9007 99.0233 81.494 99.11 80.9873 99.11C80.6607 99.11 80.3707 99.0733 80.1173 99C79.864 98.9267 79.6307 98.8167 79.4173 98.67L79.6173 98.11ZM89.7518 98.38V99H84.9818V91.9H89.6618V92.52H85.6818V95.08H89.1518V95.67H85.6818V98.38H89.7518ZM90.4688 95.4C90.4688 94.9667 90.5422 94.5433 90.6888 94.13C90.8422 93.71 91.0622 93.33 91.3488 92.99C91.6355 92.6433 91.9888 92.37 92.4088 92.17C92.8288 91.9633 93.3055 91.86 93.8388 91.86C94.4722 91.86 95.0122 92.0067 95.4588 92.3C95.9122 92.5867 96.2455 92.9567 96.4588 93.41L95.9088 93.75C95.7555 93.4367 95.5622 93.19 95.3288 93.01C95.0955 92.8233 94.8455 92.69 94.5788 92.61C94.3188 92.53 94.0588 92.49 93.7988 92.49C93.3722 92.49 92.9955 92.5767 92.6688 92.75C92.3422 92.9167 92.0655 93.1433 91.8388 93.43C91.6188 93.71 91.4522 94.0267 91.3388 94.38C91.2255 94.7267 91.1688 95.08 91.1688 95.44C91.1688 95.8333 91.2355 96.21 91.3688 96.57C91.5022 96.93 91.6888 97.25 91.9288 97.53C92.1688 97.8033 92.4488 98.0233 92.7688 98.19C93.0955 98.35 93.4488 98.43 93.8288 98.43C94.0955 98.43 94.3688 98.3833 94.6488 98.29C94.9288 98.1967 95.1888 98.0533 95.4288 97.86C95.6755 97.6667 95.8722 97.4167 96.0188 97.11L96.5988 97.41C96.4522 97.7633 96.2255 98.0633 95.9188 98.31C95.6122 98.5567 95.2688 98.7433 94.8888 98.87C94.5155 98.9967 94.1488 99.06 93.7888 99.06C93.3022 99.06 92.8555 98.9567 92.4488 98.75C92.0422 98.5367 91.6888 98.2567 91.3888 97.91C91.0955 97.5567 90.8688 97.1633 90.7088 96.73C90.5488 96.29 90.4688 95.8467 90.4688 95.4ZM102.815 92.52H100.285V99H99.5848V92.52H97.0548V91.9H102.815V92.52Z" fill="#E0CDEF"/>
<defs>
<linearGradient id="paint0_linear_1_80" x1="-4.65941" y1="97.1147" x2="133.659" y2="17.2562" gradientUnits="userSpaceOnUse">
<stop offset="0.00793651" stop-color="white"/>
<stop offset="0.0825376" stop-color="#EADDF4"/>
<stop offset="0.2239" stop-color="#C5A3E0"/>
<stop offset="0.3655" stop-color="#A572D0"/>
<stop offset="0.5039" stop-color="#8B49C2"/>
<stop offset="0.6385" stop-color="#7729B8"/>
<stop offset="0.7684" stop-color="#6912B0"/>
<stop offset="0.8913" stop-color="#6005AC"/>
<stop offset="1" stop-color="#5D00AA"/>
</linearGradient>
<linearGradient id="paint1_linear_1_80" x1="95.3679" y1="77.2793" x2="104.789" y2="71.8401" gradientUnits="userSpaceOnUse">
<stop offset="0.00793651" stop-color="white"/>
<stop offset="0.0825376" stop-color="#EADDF4"/>
<stop offset="0.2239" stop-color="#C5A3E0"/>
<stop offset="0.3655" stop-color="#A572D0"/>
<stop offset="0.5039" stop-color="#8B49C2"/>
<stop offset="0.6385" stop-color="#7729B8"/>
<stop offset="0.7684" stop-color="#6912B0"/>
<stop offset="0.8913" stop-color="#6005AC"/>
<stop offset="1" stop-color="#5D00AA"/>
</linearGradient>
<linearGradient id="paint2_linear_1_80" x1="81.4916" y1="77.9093" x2="58.7955" y2="38.5984" gradientUnits="userSpaceOnUse">
<stop offset="0.00793651" stop-color="white"/>
<stop offset="0.0825376" stop-color="#EADDF4"/>
<stop offset="0.2239" stop-color="#C5A3E0"/>
<stop offset="0.3655" stop-color="#A572D0"/>
<stop offset="0.5039" stop-color="#8B49C2"/>
<stop offset="0.6385" stop-color="#7729B8"/>
<stop offset="0.7684" stop-color="#6912B0"/>
<stop offset="0.8913" stop-color="#6005AC"/>
<stop offset="1" stop-color="#5D00AA"/>
</linearGradient>
<linearGradient id="paint3_linear_1_80" x1="50.0652" y1="68.7773" x2="26.4315" y2="27.8424" gradientUnits="userSpaceOnUse">
<stop offset="0.00793651" stop-color="white"/>
<stop offset="0.0825376" stop-color="#EADDF4"/>
<stop offset="0.2239" stop-color="#C5A3E0"/>
<stop offset="0.3655" stop-color="#A572D0"/>
<stop offset="0.5039" stop-color="#8B49C2"/>
<stop offset="0.6385" stop-color="#7729B8"/>
<stop offset="0.7684" stop-color="#6912B0"/>
<stop offset="0.8913" stop-color="#6005AC"/>
<stop offset="1" stop-color="#5D00AA"/>
</linearGradient>
<linearGradient id="paint4_linear_1_80" x1="84.3466" y1="35.5593" x2="92.9805" y2="30.5745" gradientUnits="userSpaceOnUse">
<stop offset="0.00793651" stop-color="white"/>
<stop offset="0.0825376" stop-color="#EADDF4"/>
<stop offset="0.2239" stop-color="#C5A3E0"/>
<stop offset="0.3655" stop-color="#A572D0"/>
<stop offset="0.5039" stop-color="#8B49C2"/>
<stop offset="0.6385" stop-color="#7729B8"/>
<stop offset="0.7684" stop-color="#6912B0"/>
<stop offset="0.8913" stop-color="#6005AC"/>
<stop offset="1" stop-color="#5D00AA"/>
</linearGradient>
<linearGradient id="paint5_linear_1_80" x1="91.5124" y1="28.7033" x2="95.1713" y2="26.5908" gradientUnits="userSpaceOnUse">
<stop offset="0.00793651" stop-color="white"/>
<stop offset="0.0825376" stop-color="#EADDF4"/>
<stop offset="0.2239" stop-color="#C5A3E0"/>
<stop offset="0.3655" stop-color="#A572D0"/>
<stop offset="0.5039" stop-color="#8B49C2"/>
<stop offset="0.6385" stop-color="#7729B8"/>
<stop offset="0.7684" stop-color="#6912B0"/>
<stop offset="0.8913" stop-color="#6005AC"/>
<stop offset="1" stop-color="#5D00AA"/>
</linearGradient>
</defs>
</svg>



