<svg width="125" height="111" viewBox="0 0 125 111" fill="none" xmlns="http://www.w3.org/2000/svg">
<path d="M115.741 110.34H9.25926C4.16667 110.34 0 106.173 0 101.08V9.25926C0 4.16667 4.16667 0 9.25926 0H115.741C120.833 0 125 4.16667 125 9.25926V101.08C125 106.173 120.833 110.34 115.741 110.34Z" fill="#1A1B22"/>
<path d="M89.4475 69.9228C92.2253 70.3858 95.6975 71.2346 96.0062 74.3981C96.0062 73.3951 96.0062 72.4691 96.0062 71.4661C96.0062 73.7809 95.466 76.7901 96.3148 79.0278C97.0864 80.8796 99.1697 82.5 101.33 81.9599C103.877 81.2654 104.571 78.3333 104.957 76.0957C105.188 74.8611 104.725 73.4722 104.957 72.2377C104.494 74.6296 103.722 77.716 100.944 78.179C98.0895 78.642 96.2377 75.8642 96.0062 73.3951C96.0062 74.2438 96.0062 75.0154 96.0062 75.8642C96.0062 73.9352 96.6235 70.9259 95.7747 69.1512C94.7716 67.0679 91.4537 66.3735 89.4475 66.0648C89.6018 66.142 89.216 69.9228 89.4475 69.9228Z" fill="url(#paint0_linear_1_80)"/>
<path d="M53.5679 44.46V56.9599C54.0308 52.7933 55.5741 46.9291 57.4259 43.7655C58.9691 41.1421 60.8981 39.9075 63.1358 39.9075C68.9228 39.9075 71.4691 45.3859 71.7006 52.8704C71.7778 54.8766 71.7778 56.7285 71.7778 56.7285C72.4722 49.784 75.4043 39.8303 81.3457 39.8303C88.5988 39.8303 89.9876 48.0093 89.9876 56.6513V69.8457L85.9753 70.2316V49.3211C85.9753 42.9167 83.892 40.7562 81.4228 40.7562C72.7037 40.8334 71.3148 61.3581 71.3148 69.9229L67.6883 70.3087V49.3982C67.6883 42.9939 65.6821 40.8334 63.1358 40.8334C54.6481 40.8334 53.5679 61.3581 53.5679 69.9229L49.5555 70.3087V40.7562L53.5679 44.46Z" fill="url(#paint1_linear_1_80)"/>
<path d="M36.2839 21.3118C45.3889 21.3118 53.5679 29.105 53.5679 46.2346C53.5679 63.75 45.3117 71.1575 36.2839 71.1575C27.2562 71.0803 19 63.6729 19 46.2346C19 29.1821 27.2562 21.3118 36.2839 21.3118ZM23.3981 46.3118C23.3981 64.213 29.7253 70.2315 36.2839 70.2315C42.8426 70.2315 49.2469 64.213 49.2469 46.3118C49.2469 28.4877 42.9198 22.4692 36.2839 22.4692C29.7253 22.392 23.3981 28.4877 23.3981 46.3118Z" fill="url(#paint2_linear_1_80)"/>
<path d="M96.3919 40.9877C93.074 39.0587 88.8302 36.2037 84.4321 32.1142C81.1142 29.1049 78.5679 26.0957 76.6389 23.6266C77.4105 22.392 78.1049 21.2346 78.8765 20C79.9568 22.3148 82.3487 26.7901 87.0555 31.1111C90.4506 34.1975 93.7685 36.0494 95.929 37.0525C96.0833 38.3642 96.2376 39.6759 96.3919 40.9877Z" fill="url(#paint3_linear_1_80)"/>
<path d="M92.6882 29.7994C91.8395 29.105 90.8364 28.179 89.8333 26.9445C88.6759 25.4784 87.9815 24.0124 87.5185 22.9321C88.2129 22.855 90.2191 22.7778 92.1481 24.0895C92.9969 24.6297 93.537 25.3241 93.8457 25.787C93.9228 26.1729 94 26.7901 93.8457 27.4846C93.6142 28.7192 92.9969 29.4908 92.6882 29.7994Z" fill="url(#paint4_linear_1_80)"/>
<path d="M30.18 97V91.22L27.61 95.71H27.17L24.59 91.22V97H23.89V89.9H24.61L27.38 94.76L30.17 89.9H30.88V97H30.18ZM35.5495 97.05C34.9895 97.05 34.5162 96.95 34.1295 96.75C33.7429 96.55 33.4362 96.2833 33.2095 95.95C32.9829 95.61 32.8162 95.2267 32.7095 94.8C32.6095 94.3733 32.5595 93.9333 32.5595 93.48V89.9H33.2495V93.48C33.2495 93.8467 33.2862 94.2067 33.3595 94.56C33.4395 94.9133 33.5662 95.23 33.7395 95.51C33.9129 95.79 34.1462 96.0133 34.4395 96.18C34.7329 96.34 35.0995 96.42 35.5395 96.42C35.9929 96.42 36.3662 96.3367 36.6595 96.17C36.9595 95.9967 37.1929 95.77 37.3595 95.49C37.5329 95.21 37.6562 94.8967 37.7295 94.55C37.8029 94.1967 37.8395 93.84 37.8395 93.48V89.9H38.5395V93.48C38.5395 93.9533 38.4862 94.4067 38.3795 94.84C38.2729 95.2733 38.0995 95.6533 37.8595 95.98C37.6262 96.3067 37.3195 96.5667 36.9395 96.76C36.5595 96.9533 36.0962 97.05 35.5495 97.05ZM44.3584 91.23C44.2584 91.1167 44.1417 91.0167 44.0084 90.93C43.875 90.8367 43.725 90.7567 43.5584 90.69C43.3917 90.6233 43.2117 90.57 43.0184 90.53C42.8317 90.49 42.6317 90.47 42.4184 90.47C41.7984 90.47 41.3417 90.59 41.0484 90.83C40.7617 91.0633 40.6184 91.3833 40.6184 91.79C40.6184 92.07 40.685 92.29 40.8184 92.45C40.9584 92.61 41.175 92.74 41.4684 92.84C41.7617 92.94 42.135 93.0433 42.5884 93.15C43.095 93.2567 43.5317 93.3833 43.8984 93.53C44.265 93.6767 44.5484 93.8767 44.7484 94.13C44.9484 94.3767 45.0484 94.7133 45.0484 95.14C45.0484 95.4667 44.985 95.75 44.8584 95.99C44.7317 96.23 44.555 96.43 44.3284 96.59C44.1017 96.75 43.8317 96.87 43.5184 96.95C43.205 97.0233 42.8617 97.06 42.4884 97.06C42.1217 97.06 41.7684 97.0233 41.4284 96.95C41.095 96.87 40.7784 96.7567 40.4784 96.61C40.1784 96.4567 39.8984 96.2633 39.6384 96.03L39.9884 95.46C40.115 95.5933 40.265 95.72 40.4384 95.84C40.6184 95.9533 40.815 96.0567 41.0284 96.15C41.2484 96.2433 41.4817 96.3167 41.7284 96.37C41.9817 96.4167 42.2417 96.44 42.5084 96.44C43.075 96.44 43.515 96.3367 43.8284 96.13C44.1484 95.9233 44.3084 95.6167 44.3084 95.21C44.3084 94.9167 44.2284 94.6833 44.0684 94.51C43.9084 94.33 43.6684 94.1833 43.3484 94.07C43.0284 93.9567 42.635 93.8467 42.1684 93.74C41.675 93.6267 41.2584 93.5 40.9184 93.36C40.5784 93.22 40.3217 93.0367 40.1484 92.81C39.9817 92.5767 39.8984 92.27 39.8984 91.89C39.8984 91.45 40.005 91.08 40.2184 90.78C40.4384 90.4733 40.7384 90.2433 41.1184 90.09C41.4984 89.93 41.935 89.85 42.4284 89.85C42.7417 89.85 43.0317 89.8833 43.2984 89.95C43.5717 90.01 43.8217 90.1 44.0484 90.22C44.2817 90.34 44.4984 90.49 44.6984 90.67L44.3584 91.23ZM46.2826 97V89.9H46.9826V97H46.2826ZM48.293 93.4C48.293 92.9667 48.3664 92.5433 48.513 92.13C48.6664 91.71 48.8864 91.33 49.173 90.99C49.4597 90.6433 49.813 90.37 50.233 90.17C50.653 89.9633 51.1297 89.86 51.663 89.86C52.2964 89.86 52.8364 90.0067 53.283 90.3C53.7364 90.5867 54.0697 90.9567 54.283 91.41L53.733 91.75C53.5797 91.4367 53.3864 91.19 53.153 91.01C52.9197 90.8233 52.6697 90.69 52.403 90.61C52.143 90.53 51.883 90.49 51.623 90.49C51.1964 90.49 50.8197 90.5767 50.493 90.75C50.1664 90.9167 49.8897 91.1433 49.663 91.43C49.443 91.71 49.2764 92.0267 49.163 92.38C49.0497 92.7267 48.993 93.08 48.993 93.44C48.993 93.8333 49.0597 94.21 49.193 94.57C49.3264 94.93 49.513 95.25 49.753 95.53C49.993 95.8033 50.273 96.0233 50.593 96.19C50.9197 96.35 51.273 96.43 51.653 96.43C51.9197 96.43 52.193 96.3833 52.473 96.29C52.753 96.1967 53.013 96.0533 53.253 95.86C53.4997 95.6667 53.6964 95.4167 53.843 95.11L54.423 95.41C54.2764 95.7633 54.0497 96.0633 53.743 96.31C53.4364 96.5567 53.093 96.7433 52.713 96.87C52.3397 96.9967 51.973 97.06 51.613 97.06C51.1264 97.06 50.6797 96.9567 50.273 96.75C49.8664 96.5367 49.513 96.2567 49.213 95.91C48.9197 95.5567 48.693 95.1633 48.533 94.73C48.373 94.29 48.293 93.8467 48.293 93.4ZM58.1673 97V89.9H61.1073C61.414 89.9 61.694 89.9633 61.9473 90.09C62.2073 90.2167 62.4307 90.39 62.6173 90.61C62.804 90.8233 62.9507 91.0633 63.0573 91.33C63.164 91.59 63.2173 91.8567 63.2173 92.13C63.2173 92.5167 63.1307 92.8833 62.9573 93.23C62.7907 93.57 62.554 93.8467 62.2473 94.06C61.9407 94.2733 61.5807 94.38 61.1673 94.38H58.8673V97H58.1673ZM58.8673 93.76H61.1373C61.4173 93.76 61.6607 93.6833 61.8673 93.53C62.074 93.3767 62.234 93.1767 62.3473 92.93C62.4607 92.6833 62.5173 92.4167 62.5173 92.13C62.5173 91.8367 62.4507 91.5667 62.3173 91.32C62.184 91.0733 62.0073 90.88 61.7873 90.74C61.574 90.5933 61.3373 90.52 61.0773 90.52H58.8673V93.76ZM64.388 97V89.9H67.388C67.6947 89.9 67.9747 89.9633 68.228 90.09C68.4814 90.2167 68.7014 90.39 68.888 90.61C69.0814 90.8233 69.228 91.0633 69.328 91.33C69.4347 91.59 69.488 91.8567 69.488 92.13C69.488 92.47 69.4214 92.79 69.288 93.09C69.1614 93.39 68.978 93.6433 68.738 93.85C68.5047 94.0567 68.228 94.1933 67.908 94.26L69.648 97H68.858L67.188 94.38H65.088V97H64.388ZM65.088 93.76H67.408C67.688 93.76 67.9314 93.6833 68.138 93.53C68.3447 93.3767 68.5047 93.1767 68.618 92.93C68.7314 92.6767 68.788 92.41 68.788 92.13C68.788 91.8433 68.7214 91.58 68.588 91.34C68.4614 91.0933 68.288 90.8967 68.068 90.75C67.8547 90.5967 67.6147 90.52 67.348 90.52H65.088V93.76ZM73.7813 97.05C73.2813 97.05 72.8279 96.95 72.4213 96.75C72.0146 96.55 71.6646 96.28 71.3713 95.94C71.0779 95.5933 70.8513 95.2067 70.6912 94.78C70.5313 94.3467 70.4513 93.9033 70.4513 93.45C70.4513 92.9767 70.5346 92.5267 70.7013 92.1C70.8679 91.6667 71.1013 91.2833 71.4013 90.95C71.7079 90.61 72.0646 90.3433 72.4713 90.15C72.8779 89.95 73.3179 89.85 73.7913 89.85C74.2913 89.85 74.7446 89.9533 75.1513 90.16C75.5579 90.3667 75.9046 90.6433 76.1913 90.99C76.4846 91.3367 76.7113 91.7233 76.8713 92.15C77.0313 92.5767 77.1113 93.0133 77.1113 93.46C77.1113 93.9333 77.0279 94.3867 76.8613 94.82C76.6946 95.2467 76.4613 95.63 76.1613 95.97C75.8613 96.3033 75.5079 96.5667 75.1013 96.76C74.6946 96.9533 74.2546 97.05 73.7813 97.05ZM71.1513 93.45C71.1513 93.8367 71.2146 94.21 71.3413 94.57C71.4679 94.9233 71.6479 95.24 71.8813 95.52C72.1146 95.7933 72.3913 96.0133 72.7113 96.18C73.0379 96.34 73.3946 96.42 73.7813 96.42C74.1879 96.42 74.5513 96.3367 74.8713 96.17C75.1979 95.9967 75.4746 95.77 75.7013 95.49C75.9346 95.2033 76.1113 94.8833 76.2313 94.53C76.3513 94.1767 76.4113 93.8167 76.4113 93.45C76.4113 93.0633 76.3479 92.6933 76.2213 92.34C76.0946 91.9867 75.9113 91.67 75.6713 91.39C75.4379 91.11 75.1613 90.89 74.8413 90.73C74.5213 90.57 74.1679 90.49 73.7813 90.49C73.3813 90.49 73.0179 90.5733 72.6913 90.74C72.3713 90.9067 72.0946 91.1333 71.8613 91.42C71.6346 91.7 71.4579 92.0167 71.3313 92.37C71.2113 92.7233 71.1513 93.0833 71.1513 93.45ZM77.6173 96.11C77.7573 96.21 77.9407 96.2967 78.1673 96.37C78.4007 96.4433 78.6673 96.48 78.9673 96.48C79.314 96.48 79.594 96.4233 79.8073 96.31C80.0207 96.19 80.184 96.0133 80.2973 95.78C80.4107 95.54 80.4873 95.2433 80.5273 94.89C80.5673 94.5367 80.5873 94.1233 80.5873 93.65V89.9H81.2873V93.51C81.2873 94.0433 81.2607 94.53 81.2073 94.97C81.154 95.41 81.0507 95.79 80.8973 96.11C80.744 96.43 80.514 96.6767 80.2073 96.85C79.9007 97.0233 79.494 97.11 78.9873 97.11C78.6607 97.11 78.3707 97.0733 78.1173 97C77.864 96.9267 77.6307 96.8167 77.4173 96.67L77.6173 96.11ZM87.7518 96.38V97H82.9818V89.9H87.6618V90.52H83.6818V93.08H87.1518V93.67H83.6818V96.38H87.7518ZM88.4688 93.4C88.4688 92.9667 88.5422 92.5433 88.6888 92.13C88.8422 91.71 89.0622 91.33 89.3488 90.99C89.6355 90.6433 89.9888 90.37 90.4088 90.17C90.8288 89.9633 91.3055 89.86 91.8388 89.86C92.4722 89.86 93.0122 90.0067 93.4588 90.3C93.9122 90.5867 94.2455 90.9567 94.4588 91.41L93.9088 91.75C93.7555 91.4367 93.5622 91.19 93.3288 91.01C93.0955 90.8233 92.8455 90.69 92.5788 90.61C92.3188 90.53 92.0588 90.49 91.7988 90.49C91.3722 90.49 90.9955 90.5767 90.6688 90.75C90.3422 90.9167 90.0655 91.1433 89.8388 91.43C89.6188 91.71 89.4522 92.0267 89.3388 92.38C89.2255 92.7267 89.1688 93.08 89.1688 93.44C89.1688 93.8333 89.2355 94.21 89.3688 94.57C89.5022 94.93 89.6888 95.25 89.9288 95.53C90.1688 95.8033 90.4488 96.0233 90.7688 96.19C91.0955 96.35 91.4488 96.43 91.8288 96.43C92.0955 96.43 92.3688 96.3833 92.6488 96.29C92.9288 96.1967 93.1888 96.0533 93.4288 95.86C93.6755 95.6667 93.8722 95.4167 94.0188 95.11L94.5988 95.41C94.4522 95.7633 94.2255 96.0633 93.9188 96.31C93.6122 96.5567 93.2688 96.7433 92.8888 96.87C92.5155 96.9967 92.1488 97.06 91.7888 97.06C91.3022 97.06 90.8555 96.9567 90.4488 96.75C90.0422 96.5367 89.6888 96.2567 89.3888 95.91C89.0955 95.5567 88.8688 95.1633 88.7088 94.73C88.5488 94.29 88.4688 93.8467 88.4688 93.4ZM100.815 90.52H98.2848V97H97.5848V90.52H95.0548V89.9H100.815V90.52Z" fill="#E0CDEF"/>
<defs>
<linearGradient id="paint0_linear_1_80" x1="93.3679" y1="75.2793" x2="102.789" y2="69.8401" gradientUnits="userSpaceOnUse">
<stop offset="0.00793651" stop-color="white"/>
<stop offset="0.0825376" stop-color="#EADDF4"/>
<stop offset="0.2239" stop-color="#C5A3E0"/>
<stop offset="0.3655" stop-color="#A572D0"/>
<stop offset="0.5039" stop-color="#8B49C2"/>
<stop offset="0.6385" stop-color="#7729B8"/>
<stop offset="0.7684" stop-color="#6912B0"/>
<stop offset="0.8913" stop-color="#6005AC"/>
<stop offset="1" stop-color="#5D00AA"/>
</linearGradient>
<linearGradient id="paint1_linear_1_80" x1="79.4916" y1="75.9093" x2="56.7955" y2="36.5984" gradientUnits="userSpaceOnUse">
<stop offset="0.00793651" stop-color="white"/>
<stop offset="0.0825376" stop-color="#EADDF4"/>
<stop offset="0.2239" stop-color="#C5A3E0"/>
<stop offset="0.3655" stop-color="#A572D0"/>
<stop offset="0.5039" stop-color="#8B49C2"/>
<stop offset="0.6385" stop-color="#7729B8"/>
<stop offset="0.7684" stop-color="#6912B0"/>
<stop offset="0.8913" stop-color="#6005AC"/>
<stop offset="1" stop-color="#5D00AA"/>
</linearGradient>
<linearGradient id="paint2_linear_1_80" x1="48.0652" y1="66.7773" x2="24.4315" y2="25.8424" gradientUnits="userSpaceOnUse">
<stop offset="0.00793651" stop-color="white"/>
<stop offset="0.0825376" stop-color="#EADDF4"/>
<stop offset="0.2239" stop-color="#C5A3E0"/>
<stop offset="0.3655" stop-color="#A572D0"/>
<stop offset="0.5039" stop-color="#8B49C2"/>
<stop offset="0.6385" stop-color="#7729B8"/>
<stop offset="0.7684" stop-color="#6912B0"/>
<stop offset="0.8913" stop-color="#6005AC"/>
<stop offset="1" stop-color="#5D00AA"/>
</linearGradient>
<linearGradient id="paint3_linear_1_80" x1="82.3466" y1="33.5593" x2="90.9805" y2="28.5745" gradientUnits="userSpaceOnUse">
<stop offset="0.00793651" stop-color="white"/>
<stop offset="0.0825376" stop-color="#EADDF4"/>
<stop offset="0.2239" stop-color="#C5A3E0"/>
<stop offset="0.3655" stop-color="#A572D0"/>
<stop offset="0.5039" stop-color="#8B49C2"/>
<stop offset="0.6385" stop-color="#7729B8"/>
<stop offset="0.7684" stop-color="#6912B0"/>
<stop offset="0.8913" stop-color="#6005AC"/>
<stop offset="1" stop-color="#5D00AA"/>
</linearGradient>
<linearGradient id="paint4_linear_1_80" x1="89.5124" y1="26.7033" x2="93.1713" y2="24.5908" gradientUnits="userSpaceOnUse">
<stop offset="0.00793651" stop-color="white"/>
<stop offset="0.0825376" stop-color="#EADDF4"/>
<stop offset="0.2239" stop-color="#C5A3E0"/>
<stop offset="0.3655" stop-color="#A572D0"/>
<stop offset="0.5039" stop-color="#8B49C2"/>
<stop offset="0.6385" stop-color="#7729B8"/>
<stop offset="0.7684" stop-color="#6912B0"/>
<stop offset="0.8913" stop-color="#6005AC"/>
<stop offset="1" stop-color="#5D00AA"/>
</linearGradient>
</defs>
</svg>
