<svg width="582" height="402" xmlns="http://www.w3.org/2000/svg">
 <!-- Created with SVG Editor - http://github.com/mzalive/SVG Editor/ -->

 <g>
  <title>background</title>
  <rect fill="#fff" id="canvas_background" height="404" width="584" y="-1" x="-1"/>
  <g display="none" overflow="visible" y="0" x="0" height="100%" width="100%" id="canvasGrid">
   <rect fill="url(#gridpattern)" stroke-width="0" y="1" x="1" height="400" width="580"/>
  </g>
 </g>
 <g>
  <title>Layer 1</title>

  <defs>
   <linearGradient y2="0.138265" x2="1.053272" y1="0.862015" x1="-0.053275" id="svg_37">
    <stop stop-color="white" offset="0.007937"/>
    <stop stop-color="#EADDF4" offset="0.082538"/>
    <stop stop-color="#C5A3E0" offset="0.2239"/>
    <stop stop-color="#A572D0" offset="0.3655"/>
    <stop stop-color="#8B49C2" offset="0.5039"/>
    <stop stop-color="#7729B8" offset="0.6385"/>
    <stop stop-color="#6912B0" offset="0.7684"/>
    <stop stop-color="#6005AC" offset="0.8913"/>
    <stop stop-color="#5D00AA" offset="1"/>
   </linearGradient>
   <linearGradient y2="0.235949" x2="0.857234" y1="0.575889" x1="0.255328" id="svg_36">
    <stop stop-color="white" offset="0.007937"/>
    <stop stop-color="#EADDF4" offset="0.082538"/>
    <stop stop-color="#C5A3E0" offset="0.2239"/>
    <stop stop-color="#A572D0" offset="0.3655"/>
    <stop stop-color="#8B49C2" offset="0.5039"/>
    <stop stop-color="#7729B8" offset="0.6385"/>
    <stop stop-color="#6912B0" offset="0.7684"/>
    <stop stop-color="#6005AC" offset="0.8913"/>
    <stop stop-color="#5D00AA" offset="1"/>
   </linearGradient>
   <linearGradient y2="-0.106039" x2="0.179066" y1="1.183756" x1="0.740404" id="svg_35">
    <stop stop-color="white" offset="0.007937"/>
    <stop stop-color="#EADDF4" offset="0.082538"/>
    <stop stop-color="#C5A3E0" offset="0.2239"/>
    <stop stop-color="#A572D0" offset="0.3655"/>
    <stop stop-color="#8B49C2" offset="0.5039"/>
    <stop stop-color="#7729B8" offset="0.6385"/>
    <stop stop-color="#6912B0" offset="0.7684"/>
    <stop stop-color="#6005AC" offset="0.8913"/>
    <stop stop-color="#5D00AA" offset="1"/>
   </linearGradient>
   <linearGradient y2="0.090892" x2="0.157126" y1="0.912125" x1="0.840815" id="svg_34">
    <stop stop-color="white" offset="0.007937"/>
    <stop stop-color="#EADDF4" offset="0.082538"/>
    <stop stop-color="#C5A3E0" offset="0.2239"/>
    <stop stop-color="#A572D0" offset="0.3655"/>
    <stop stop-color="#8B49C2" offset="0.5039"/>
    <stop stop-color="#7729B8" offset="0.6385"/>
    <stop stop-color="#6912B0" offset="0.7684"/>
    <stop stop-color="#6005AC" offset="0.8913"/>
    <stop stop-color="#5D00AA" offset="1"/>
   </linearGradient>
   <linearGradient y2="0.408549" x2="0.726047" y1="0.646059" x1="0.288954" id="svg_33">
    <stop stop-color="white" offset="0.007937"/>
    <stop stop-color="#EADDF4" offset="0.082538"/>
    <stop stop-color="#C5A3E0" offset="0.2239"/>
    <stop stop-color="#A572D0" offset="0.3655"/>
    <stop stop-color="#8B49C2" offset="0.5039"/>
    <stop stop-color="#7729B8" offset="0.6385"/>
    <stop stop-color="#6912B0" offset="0.7684"/>
    <stop stop-color="#6005AC" offset="0.8913"/>
    <stop stop-color="#5D00AA" offset="1"/>
   </linearGradient>
   <linearGradient y2="0.245529" x2="0.88101" y1="0.551527" x1="0.310757" id="svg_32">
    <stop stop-color="white" offset="0.007937"/>
    <stop stop-color="#EADDF4" offset="0.082538"/>
    <stop stop-color="#C5A3E0" offset="0.2239"/>
    <stop stop-color="#A572D0" offset="0.3655"/>
    <stop stop-color="#8B49C2" offset="0.5039"/>
    <stop stop-color="#7729B8" offset="0.6385"/>
    <stop stop-color="#6912B0" offset="0.7684"/>
    <stop stop-color="#6005AC" offset="0.8913"/>
    <stop stop-color="#5D00AA" offset="1"/>
   </linearGradient>
  </defs>
  <g id="svg_46">
   <path id="svg_39" stroke-miterlimit="10" stroke-width="0" stroke="url(#svg_37)" fill="#292929" d="m124.887054,119.059258l-114.896068,0c-5.495059,0 -9.990986,-4.496284 -9.990986,-9.991741l0,-99.076531c0,-5.495059 4.495927,-9.990986 9.990986,-9.990986l114.896068,0c5.494379,0 9.990662,4.495927 9.990662,9.990986l0,99.076531c0,5.495457 -4.496283,9.991741 -9.990662,9.991741z"/>
   <path id="svg_40" fill="url(#svg_36)" d="m96.515796,75.448221c2.997307,0.499587 6.743886,1.415461 7.07698,4.828946c0,-1.082259 0,-2.081433 0,-3.163692c0,2.49772 -0.582888,5.744712 0.332986,8.159239c0.832573,1.998132 3.080823,3.746579 5.41151,3.1638c2.748268,-0.749381 3.497109,-3.91318 3.913612,-6.327599c0.249254,-1.33216 -0.250333,-2.830814 0,-4.162866c-0.499587,2.580912 -1.332592,5.911205 -4.330114,6.410792c-3.080607,0.499587 -5.0782,-2.49772 -5.327994,-5.161932c0,0.915766 0,1.748339 0,2.664213c0,-2.081433 0.66608,-5.328533 -0.249794,-7.243473c-1.082367,-2.247926 -4.662453,-2.997199 -6.827186,-3.330293c0.166493,0.0833 -0.249794,4.162866 0,4.162866z"/>
   <path id="svg_41" fill="url(#svg_35)" d="m57.800928,47.973306l0,13.487664c0.499479,-4.495852 2.164733,-10.823451 4.162866,-14.237044c1.665146,-2.830706 3.746579,-4.162866 6.161106,-4.162866c6.244299,0 8.991812,5.911313 9.241605,13.987251c0.0833,2.164733 0.0833,4.162974 0.0833,4.162974c0.749273,-7.493266 3.913072,-18.233525 10.323972,-18.233525c7.826253,0 9.324798,8.825319 9.324798,18.150225l0,14.237044l-4.329359,0.416394l0,-22.562884c0,-6.910487 -2.247926,-9.241713 -4.912246,-9.241713c-9.408098,0.0833 -10.906752,22.229898 -10.906752,31.471503l-3.913072,0.416287l0,-22.562884c0,-6.910379 -2.164733,-9.241605 -4.912246,-9.241605c-9.158413,0 -10.323972,22.146597 -10.323972,31.388203l-4.329467,0.416287l0,-31.88779l4.329467,3.996481z"/>
   <path id="svg_42" fill="url(#svg_34)" d="m39.151117,22.995895c9.824493,0 18.649812,8.409032 18.649812,26.892243c0,18.899497 -8.908619,26.892351 -18.649812,26.892351c-9.741084,-0.0833 -18.649704,-8.076046 -18.649704,-26.892351c0,-18.400018 8.908619,-26.892243 18.649704,-26.892243zm-13.904058,26.975543c0,19.315784 6.827186,25.809876 13.904058,25.809876c7.07698,0 13.987359,-6.494092 13.987359,-25.809876c0,-19.232591 -6.827078,-25.726684 -13.987359,-25.726684c-7.076872,-0.0833 -13.904058,6.494092 -13.904058,25.726684z"/>
   <path id="svg_43" fill="url(#svg_33)" d="m104.008955,44.226619c-3.580086,-2.081433 -8.159239,-5.16204 -12.904884,-9.574699c-3.580086,-3.2471 -6.327599,-6.494092 -8.409032,-9.158305c0.832573,-1.33216 1.581846,-2.58102 2.414419,-3.91318c1.165667,2.49772 3.746579,7.326665 8.825319,11.989118c3.663387,3.330293 7.243473,5.328533 9.574699,6.4109c0.166493,1.415353 0.332986,2.830706 0.499479,4.246166z"/>
   <path id="svg_44" fill="url(#svg_32)" d="m100.012582,32.1542c-0.915766,-0.749273 -1.998132,-1.748447 -3.080499,-3.080499c-1.24886,-1.581954 -1.998132,-3.1638 -2.49772,-4.329467c0.749273,-0.083193 2.914006,-0.166493 4.995439,1.24886c0.915874,0.582888 1.498653,1.33216 1.831747,1.831639c0.083193,0.416394 0.166493,1.082367 0,1.831747c-0.249794,1.33216 -0.915874,2.164733 -1.248968,2.49772z"/>
   <path id="svg_45" fill="#E0CDEF" d="m32.564876,104.665108l0,-6.236746l-2.773086,4.844808l-0.47477,0l-2.783876,-4.844808l0,6.236746l-0.755315,0l0,-7.661054l0.776896,0l2.98889,5.244046l3.010471,-5.244046l0.766105,0l0,7.661054l-0.755315,0zm5.793807,0.053951c-0.604252,0 -1.114953,-0.107902 -1.532211,-0.323707c-0.41715,-0.215804 -0.748086,-0.503579 -0.9927,-0.863217c-0.244506,-0.366867 -0.424379,-0.780456 -0.539511,-1.240875c-0.107902,-0.460419 -0.161853,-0.935188 -0.161853,-1.424309l0,-3.862898l0.744525,0l0,3.862898c0,0.395677 0.0396,0.784125 0.118692,1.165343c0.086322,0.381218 0.223034,0.722945 0.410028,1.025071c0.187102,0.302126 0.438838,0.543072 0.755315,0.722945c0.316585,0.172643 0.712154,0.258965 1.186924,0.258965c0.489228,0 0.892027,-0.089883 1.208504,-0.269755c0.323707,-0.186994 0.57555,-0.431609 0.755315,-0.733735c0.187102,-0.302126 0.320146,-0.640184 0.399238,-1.01428c0.0792,-0.381218 0.118692,-0.766105 0.118692,-1.154553l0,-3.862898l0.755315,0l0,3.862898c0,0.510701 -0.057512,0.999929 -0.172643,1.46747c-0.115024,0.46754 -0.302126,0.877568 -0.561091,1.230085c-0.251736,0.352516 -0.582672,0.633062 -0.9927,0.841637c-0.410028,0.208575 -0.909939,0.312916 -1.49984,0.312916zm9.504995,-6.279906c-0.107902,-0.122253 -0.233824,-0.230155 -0.377658,-0.323707c-0.143941,-0.100673 -0.305795,-0.186994 -0.48556,-0.258965c-0.179873,-0.071971 -0.374097,-0.129483 -0.582672,-0.172643c-0.201453,-0.043161 -0.417258,-0.064741 -0.647413,-0.064741c-0.668993,0 -1.161783,0.129483 -1.47826,0.388448c-0.309356,0.251736 -0.463979,0.597023 -0.463979,1.035861c0,0.302126 0.071863,0.539511 0.215804,0.712154c0.151063,0.172643 0.384779,0.312916 0.701364,0.420818c0.316477,0.107902 0.719276,0.219365 1.208504,0.334497c0.546632,0.115132 1.017841,0.251736 1.413518,0.410028c0.395569,0.158292 0.701364,0.374097 0.917168,0.647413c0.215804,0.266195 0.323707,0.629393 0.323707,1.089812c0,0.352516 -0.06841,0.658203 -0.205014,0.917168c-0.136712,0.258965 -0.327375,0.47477 -0.571882,0.647413c-0.244614,0.172643 -0.53595,0.302126 -0.874008,0.388448c-0.338165,0.079092 -0.708594,0.118692 -1.111392,0.118692c-0.395677,0 -0.776896,-0.0396 -1.143763,-0.118692c-0.359746,-0.086322 -0.701364,-0.208575 -1.025071,-0.366867c-0.323707,-0.165414 -0.625833,-0.374097 -0.906378,-0.625833l0.377658,-0.615042c0.136604,0.143834 0.298457,0.280546 0.48556,0.410028c0.194224,0.122253 0.40636,0.233824 0.636623,0.334497c0.237385,0.100673 0.489121,0.179873 0.755315,0.237385c0.273316,0.05039 0.553862,0.075532 0.841637,0.075532c0.611374,0 1.086143,-0.111463 1.424309,-0.334497c0.345287,-0.223034 0.51793,-0.553862 0.51793,-0.9927c0,-0.316477 -0.086322,-0.568321 -0.258965,-0.755315c-0.172643,-0.194224 -0.431609,-0.352516 -0.776896,-0.47477c-0.345287,-0.122253 -0.769774,-0.240946 -1.273246,-0.356077c-0.532389,-0.122253 -0.98191,-0.258965 -1.348777,-0.410028c-0.366867,-0.151063 -0.643852,-0.348848 -0.830847,-0.593462c-0.179873,-0.251736 -0.269755,-0.582672 -0.269755,-0.9927c0,-0.47477 0.115024,-0.874008 0.345287,-1.197714c0.237385,-0.330936 0.561091,-0.579111 0.97112,-0.744525c0.410028,-0.172643 0.881129,-0.258965 1.413518,-0.258965c0.338058,0 0.650974,0.035931 0.938749,0.107902c0.294897,0.064741 0.564652,0.161853 0.809266,0.291336c0.251736,0.129483 0.48556,0.291336 0.701364,0.48556l-0.366867,0.604252zm2.076254,6.225955l0,-7.661054l0.755315,0l0,7.661054l-0.755315,0zm2.169265,-3.884478c0,-0.46754 0.0792,-0.924398 0.237385,-1.370358c0.165522,-0.453189 0.402907,-0.863217 0.712154,-1.230085c0.309356,-0.374097 0.690574,-0.668993 1.143763,-0.884798c0.453189,-0.223034 0.967559,-0.334497 1.543001,-0.334497c0.683452,0 1.266124,0.158292 1.748015,0.47477c0.489228,0.309356 0.848866,0.708594 1.079022,1.197714l-0.593462,0.366867c-0.165414,-0.338058 -0.373989,-0.604252 -0.625833,-0.798476c-0.251736,-0.201453 -0.521491,-0.345287 -0.809266,-0.431609c-0.280546,-0.086322 -0.561091,-0.129483 -0.841637,-0.129483c-0.460311,0 -0.866778,0.093551 -1.219295,0.280546c-0.352408,0.179873 -0.650974,0.424379 -0.895588,0.733735c-0.237385,0.302126 -0.41715,0.643852 -0.539511,1.025071c-0.122253,0.374097 -0.183434,0.755315 -0.183434,1.143763c0,0.424379 0.071971,0.830847 0.215804,1.219295c0.143941,0.388448 0.345287,0.733735 0.604252,1.035861c0.258965,0.294897 0.561091,0.532281 0.906378,0.712154c0.352516,0.172643 0.733735,0.258965 1.143763,0.258965c0.287775,0 0.582672,-0.05039 0.884798,-0.151063c0.302126,-0.100673 0.582672,-0.255404 0.841637,-0.463979c0.266195,-0.208575 0.478438,-0.47833 0.636623,-0.809266l0.625833,0.323707c-0.158185,0.381218 -0.402799,0.704925 -0.733735,0.97112c-0.330828,0.266195 -0.701364,0.46754 -1.111392,0.604252c-0.402799,0.136712 -0.798476,0.205014 -1.186924,0.205014c-0.525052,0 -1.007051,-0.111463 -1.445889,-0.334497c-0.43873,-0.230155 -0.820057,-0.532281 -1.143763,-0.906378c-0.316477,-0.381218 -0.561091,-0.805706 -0.733735,-1.273246c-0.172643,-0.47477 -0.258965,-0.9531 -0.258965,-1.435099zm10.654584,3.884478l0,-7.661054l3.172324,0c0.330936,0 0.633062,0.068302 0.906378,0.205014c0.280546,0.136712 0.521599,0.323707 0.722945,0.561091c0.201453,0.230155 0.359746,0.489121 0.47477,0.776896c0.115132,0.280546 0.172643,0.568321 0.172643,0.863217c0,0.417258 -0.093443,0.812827 -0.280546,1.186924c-0.179765,0.366867 -0.435169,0.665433 -0.766105,0.895588c-0.330828,0.230155 -0.719276,0.345287 -1.165343,0.345287l-2.48175,0l0,2.827037l-0.755315,0zm0.755315,-3.49603l2.449379,0c0.302126,0 0.56476,-0.082761 0.787686,-0.248175c0.223034,-0.165414 0.395677,-0.381218 0.51793,-0.647413c0.122361,-0.266195 0.183434,-0.553862 0.183434,-0.863217c0,-0.316477 -0.071863,-0.607813 -0.215804,-0.874008c-0.143834,-0.266195 -0.334497,-0.47477 -0.571882,-0.625833c-0.230155,-0.158292 -0.48556,-0.237385 -0.766105,-0.237385l-2.384638,0l0,3.49603zm5.956955,3.49603l0,-7.661054l3.237065,0c0.330936,0 0.633062,0.068302 0.906378,0.205014c0.273424,0.136712 0.510809,0.323707 0.712154,0.561091c0.208683,0.230155 0.366867,0.489121 0.47477,0.776896c0.115132,0.280546 0.172643,0.568321 0.172643,0.863217c0,0.366867 -0.071863,0.712154 -0.215804,1.035861c-0.136604,0.323707 -0.334497,0.597023 -0.593462,0.820057c-0.251736,0.223034 -0.550301,0.370428 -0.895588,0.442399l1.877498,2.95652l-0.852427,0l-1.801966,-2.827037l-2.265946,0l0,2.827037l-0.755315,0zm0.755315,-3.49603l2.50333,0c0.302126,0 0.56476,-0.082761 0.787686,-0.248175c0.223034,-0.165414 0.395677,-0.381218 0.51793,-0.647413c0.122361,-0.273316 0.183434,-0.561091 0.183434,-0.863217c0,-0.309356 -0.071863,-0.593462 -0.215804,-0.852427c-0.136604,-0.266195 -0.323707,-0.47833 -0.561091,-0.636623c-0.230155,-0.165414 -0.489121,-0.248175 -0.776896,-0.248175l-2.438589,0l0,3.49603zm9.38026,3.549981c-0.539511,0 -1.028739,-0.107902 -1.46747,-0.323707c-0.438838,-0.215804 -0.816496,-0.50714 -1.132973,-0.874008c-0.316585,-0.374097 -0.561091,-0.791247 -0.733843,-1.251665c-0.172536,-0.46754 -0.258857,-0.945978 -0.258857,-1.435099c0,-0.510701 0.089883,-0.996261 0.269755,-1.456679c0.179765,-0.46754 0.431609,-0.881237 0.755315,-1.240875c0.330828,-0.366867 0.715715,-0.654642 1.154553,-0.863217c0.43873,-0.215804 0.9135,-0.323707 1.424309,-0.323707c0.539511,0 1.028631,0.111463 1.46747,0.334497c0.43873,0.223034 0.812827,0.521491 1.122183,0.895588c0.316477,0.374097 0.561091,0.791247 0.733735,1.251665c0.172643,0.460419 0.258965,0.931519 0.258965,1.413518c0,0.510701 -0.08999,0.999929 -0.269755,1.46747c-0.179873,0.460419 -0.431609,0.874008 -0.755315,1.240875c-0.323707,0.359638 -0.705033,0.643852 -1.143763,0.852427c-0.438838,0.208575 -0.913608,0.312916 -1.424309,0.312916zm-2.837827,-3.884478c0,0.417258 0.068302,0.820057 0.205014,1.208504c0.136604,0.381218 0.330828,0.722945 0.582672,1.025071c0.251736,0.294897 0.550301,0.532281 0.895588,0.712154c0.352408,0.172643 0.737296,0.258965 1.154553,0.258965c0.43873,0 0.830847,-0.089883 1.176134,-0.269755c0.352408,-0.186994 0.650974,-0.431609 0.895588,-0.733735c0.251736,-0.309356 0.442399,-0.654642 0.571882,-1.035861c0.129483,-0.381218 0.194224,-0.769666 0.194224,-1.165343c0,-0.417258 -0.06841,-0.816496 -0.205014,-1.197714c-0.136712,-0.381218 -0.334497,-0.722945 -0.593462,-1.025071c-0.251844,-0.302126 -0.550301,-0.539511 -0.895588,-0.712154c-0.345287,-0.172643 -0.726613,-0.258965 -1.143763,-0.258965c-0.431609,0 -0.823725,0.089883 -1.176134,0.269755c-0.345287,0.179873 -0.643852,0.424379 -0.895588,0.733735c-0.244614,0.302126 -0.435277,0.643852 -0.571882,1.025071c-0.129483,0.381218 -0.194224,0.769666 -0.194224,1.165343zm6.976955,2.870198c0.151063,0.107902 0.348956,0.201453 0.593462,0.280546c0.251844,0.079092 0.539511,0.118692 0.863217,0.118692c0.374097,0 0.676223,-0.061181 0.906378,-0.183434c0.230263,-0.129483 0.406467,-0.320146 0.528721,-0.571882c0.122361,-0.258965 0.205014,-0.579111 0.248175,-0.960329c0.043161,-0.381218 0.064741,-0.827286 0.064741,-1.337987l0,-4.046331l0.755315,0l0,3.895268c0,0.575442 -0.028702,1.100602 -0.086322,1.575372c-0.057512,0.47477 -0.168975,0.884798 -0.334497,1.230085c-0.165414,0.345287 -0.413589,0.611482 -0.744525,0.798476c-0.330828,0.186994 -0.769666,0.280546 -1.316407,0.280546c-0.352408,0 -0.665325,-0.0396 -0.938749,-0.118692c-0.273316,-0.079092 -0.525052,-0.197785 -0.755315,-0.356077l0.215804,-0.604252zm10.935346,0.291336l0,0.668993l-5.146934,0l0,-7.661054l5.049822,0l0,0.668993l-4.294506,0l0,2.762296l3.744205,0l0,0.636623l-3.744205,0l0,2.924149l4.391618,0zm0.773659,-3.215485c0,-0.46754 0.0792,-0.924398 0.237385,-1.370358c0.165522,-0.453189 0.402907,-0.863217 0.712154,-1.230085c0.309356,-0.374097 0.690574,-0.668993 1.143763,-0.884798c0.453189,-0.223034 0.967559,-0.334497 1.543001,-0.334497c0.683452,0 1.266124,0.158292 1.748015,0.47477c0.489228,0.309356 0.848866,0.708594 1.079022,1.197714l-0.593462,0.366867c-0.165414,-0.338058 -0.373989,-0.604252 -0.625833,-0.798476c-0.251736,-0.201453 -0.521491,-0.345287 -0.809266,-0.431609c-0.280546,-0.086322 -0.561091,-0.129483 -0.841637,-0.129483c-0.460311,0 -0.866778,0.093551 -1.219295,0.280546c-0.352408,0.179873 -0.650974,0.424379 -0.895588,0.733735c-0.237385,0.302126 -0.41715,0.643852 -0.539511,1.025071c-0.122253,0.374097 -0.183434,0.755315 -0.183434,1.143763c0,0.424379 0.071971,0.830847 0.215804,1.219295c0.143941,0.388448 0.345287,0.733735 0.604252,1.035861c0.258965,0.294897 0.561091,0.532281 0.906378,0.712154c0.352516,0.172643 0.733735,0.258965 1.143763,0.258965c0.287775,0 0.582672,-0.05039 0.884798,-0.151063c0.302126,-0.100673 0.582672,-0.255404 0.841637,-0.463979c0.266195,-0.208575 0.478438,-0.47833 0.636623,-0.809266l0.625833,0.323707c-0.158185,0.381218 -0.402799,0.704925 -0.733735,0.97112c-0.330828,0.266195 -0.701364,0.46754 -1.111392,0.604252c-0.402799,0.136712 -0.798476,0.205014 -1.186924,0.205014c-0.525052,0 -1.007051,-0.111463 -1.445889,-0.334497c-0.43873,-0.230155 -0.820057,-0.532281 -1.143763,-0.906378c-0.316477,-0.381218 -0.561091,-0.805706 -0.733735,-1.273246c-0.172643,-0.47477 -0.258965,-0.9531 -0.258965,-1.435099zm13.321818,-3.107583l-2.729925,0l0,6.992061l-0.755531,0l0,-6.992061l-2.729925,0l0,-0.668993l6.215381,0l0,0.668993z"/>
  </g>
 </g>
</svg>